<svg width="0" height="0" class="hidden">
  <symbol xmlns="http://www.w3.org/2000/svg" viewBox="0 0 128 39" id="imgLogotype">
    <path fill-rule="evenodd" clip-rule="evenodd" d="M19.2966 0C29.9361 0 38.5932 8.74832 38.5932 19.5C38.5932 30.2517 29.9361 39 19.2966 39C8.65708 39 0 30.2517 0 19.5C0 8.74832 8.65708 0 19.2966 0ZM19.2966 2.20784C9.86055 2.20784 2.18481 9.96448 2.18481 19.5C2.18481 29.0355 9.86055 36.7922 19.2966 36.7922C28.7327 36.7922 36.4084 29.0355 36.4084 19.5C36.4084 9.96448 28.7327 2.20784 19.2966 2.20784ZM20.3889 5.96147C20.3889 9.3624 23.1275 12.1283 26.4929 12.1283V14.3362C24.0769 14.3362 21.9058 13.2799 20.3889 11.6071V12.8356C20.3889 16.2365 23.1275 19.0025 26.4929 19.0025V21.2103C24.0769 21.2103 21.9058 20.154 20.3889 18.4813V19.7097C20.3889 23.1106 23.1275 25.8766 26.4929 25.8766V28.0844C24.0769 28.0844 21.9058 27.0282 20.3889 25.3554V33.0382H18.2041V25.3569C16.6887 27.0282 14.5176 28.0844 12.1015 28.0844V25.8766C15.467 25.8766 18.2041 23.1106 18.2041 19.7097V18.4828C16.6887 20.154 14.5176 21.2103 12.1015 21.2103V19.0025C15.467 19.0025 18.2041 16.2365 18.2041 12.8356V11.6071C16.6887 13.2799 14.5176 14.3362 12.1015 14.3362V12.1283C15.467 12.1283 18.2041 9.3624 18.2041 5.96147H20.3889ZM123.487 23.0304L126.005 27.7167V23.0304H128V31.5343H125.943L123.487 26.8603V31.5343H121.492V23.0304H123.487ZM81.3181 23.0318C81.9039 23.0318 82.304 23.4346 82.304 24.0265V30.5393C82.304 31.1313 81.9039 31.5341 81.3181 31.5341H76.9926C76.4069 31.5341 76.0082 31.1313 76.0082 30.5393V24.0265C76.0082 23.4346 76.4069 23.0318 76.9926 23.0318H81.3181ZM98.2796 23.0302C98.8654 23.0302 99.264 23.4346 99.264 24.0265V31.5341H97.0959V29.417H95.1895V31.5341H93.0199V24.0265C93.0199 23.4346 93.4186 23.0302 94.0043 23.0302H98.2796ZM118.184 23.0318C118.77 23.0318 119.17 23.4346 119.17 24.0265V30.5393C119.17 31.1313 118.77 31.5341 118.184 31.5341H113.859C113.273 31.5341 112.874 31.1313 112.874 30.5393V24.0265C112.874 23.4346 113.273 23.0318 113.859 23.0318H118.184ZM110.553 23.0313V31.5336H108.397V23.0313H110.553ZM55.3038 23.0312L56.5758 25.4619L57.6347 23.0312H59.9671L57.6484 27.4268L59.9412 31.5335H57.548L56.3019 29.1903L55.1045 31.5335H52.8239L55.2673 27.2885L52.8862 23.0312H55.3038ZM89.9118 23.0307C90.423 23.0307 90.8581 23.4474 90.8581 23.9886V27.8815C90.8581 28.3965 90.423 28.8378 89.9118 28.8378H89.8494L90.884 31.533H88.7646L87.7178 28.8378H86.7958V31.533H84.6262V23.0307H89.9118ZM51.6729 23.031V24.8575H48.3318V26.3443H51.224V28.157H48.3318V29.6945H51.6729V31.5333H46.1758V23.031H51.6729ZM66.6645 23.0307C67.1742 23.0307 67.6109 23.4474 67.6109 23.9886V28.3596C67.6109 28.8639 67.1742 29.316 66.6645 29.316H63.6855V31.533H61.5159V23.0307H66.6645ZM71.8032 23.031V29.6945H74.484V31.5333H69.6473V23.031H71.8032ZM106.786 23.031V24.8698H104.879V31.5333H102.71V24.8698H100.802V23.031H106.786ZM79.9975 24.8706H78.2904C78.2402 24.8706 78.1778 24.9336 78.1778 25.009V29.5815C78.1778 29.6445 78.2402 29.6953 78.2904 29.6953H79.9975C80.072 29.6953 80.1344 29.6445 80.1344 29.5815V25.009C80.1344 24.9336 80.072 24.8706 79.9975 24.8706ZM116.863 24.8706H115.156C115.106 24.8706 115.044 24.9336 115.044 25.009V29.5815C115.044 29.6445 115.106 29.6953 115.156 29.6953H116.863C116.938 29.6953 117 29.6445 117 29.5815V25.009C117 24.9336 116.938 24.8706 116.863 24.8706ZM96.7962 24.7691H95.4497C95.3006 24.7691 95.1895 24.8829 95.1895 25.0213V27.5781H97.0959V25.0213C97.0959 24.8706 96.9711 24.7691 96.7962 24.7691ZM65.3302 24.8572H63.6855V27.5156H65.3302C65.3926 27.5156 65.4428 27.4525 65.4428 27.4018V24.9833C65.4428 24.9203 65.3926 24.8572 65.3302 24.8572ZM88.5896 24.8572H86.7958V27.125H88.5896C88.6398 27.125 88.7022 27.062 88.7022 27.0113V24.9833C88.7022 24.9203 88.6398 24.8572 88.5896 24.8572ZM78.9436 7.46606V10.1582H76.1517V19.9136H72.9764V10.1582H70.1846V7.46606H78.9436ZM126.576 7.4659C127.324 7.4659 127.963 8.07475 127.963 8.8681V14.566C127.963 15.3209 127.324 15.9667 126.576 15.9667H126.486L128 19.9134H124.898L123.366 15.9667H122.015V19.9134H118.839V7.4659H126.576ZM61.9661 7.46606V17.0554C61.9661 17.1476 62.0574 17.2214 62.1304 17.2214H64.4476C64.5572 17.2214 64.6484 17.1476 64.6484 17.0554V7.46606H67.8237V18.4929C67.8237 19.3047 67.203 19.9136 66.4362 19.9136H60.1951C59.4481 19.9136 58.7908 19.3047 58.7908 18.4929V7.46606H61.9661ZM53.9485 7.46667C54.8066 7.46667 55.3908 8.05553 55.3908 8.92268V18.4567C55.3908 19.3238 54.8066 19.9127 53.9485 19.9127H47.6177C46.7596 19.9127 46.1754 19.3238 46.1754 18.4567V8.92268C46.1754 8.05553 46.7596 7.46667 47.6177 7.46667H53.9485ZM87.9266 7.4656C89.2761 7.4656 90.4263 8.59104 90.4263 9.99169V17.3686C90.4263 18.7892 89.2761 19.9131 87.9266 19.9131H81.3021V7.4656H87.9266ZM101.49 7.46667C102.348 7.46667 102.933 8.05553 102.933 8.92268V18.4567C102.933 19.3238 102.348 19.9127 101.49 19.9127H95.1595C94.3015 19.9127 93.7172 19.3238 93.7172 18.4567V8.92268C93.7172 8.05553 94.3015 7.46667 95.1595 7.46667H101.49ZM113.997 7.46667C114.855 7.46667 115.439 8.05553 115.439 8.92268V18.4567C115.439 19.3238 114.855 19.9127 113.997 19.9127H107.666C106.808 19.9127 106.224 19.3238 106.224 18.4567V8.92268C106.224 8.05553 106.808 7.46667 107.666 7.46667H113.997ZM86.3747 10.1408H84.4774V17.221H86.3747C86.9041 17.221 87.2693 16.852 87.2693 16.3169V11.0433C87.2693 10.5083 86.9041 10.1408 86.3747 10.1408ZM52.0147 10.1588H49.515C49.442 10.1588 49.3507 10.2511 49.3507 10.3618V17.056C49.3507 17.1483 49.442 17.2205 49.515 17.2205H52.0147C52.1243 17.2205 52.2156 17.1483 52.2156 17.056V10.3618C52.2156 10.2511 52.1243 10.1588 52.0147 10.1588ZM99.5565 10.1588H97.0568C96.9838 10.1588 96.8925 10.2511 96.8925 10.3618V17.056C96.8925 17.1483 96.9838 17.2205 97.0568 17.2205H99.5565C99.6661 17.2205 99.7574 17.1483 99.7574 17.056V10.3618C99.7574 10.2511 99.6661 10.1588 99.5565 10.1588ZM112.063 10.1588H109.563C109.49 10.1588 109.399 10.2511 109.399 10.3618V17.056C109.399 17.1483 109.49 17.2205 109.563 17.2205H112.063C112.173 17.2205 112.264 17.1483 112.264 17.056V10.3618C112.264 10.2511 112.173 10.1588 112.063 10.1588ZM124.642 10.1396H122.015V13.459H124.642C124.715 13.459 124.806 13.3668 124.806 13.293V10.3241C124.806 10.2318 124.715 10.1396 124.642 10.1396Z"></path>
  </symbol>

  <symbol fill="none" xmlns="http://www.w3.org/2000/svg" viewBox="0 0 24 24" id="iconFB">
    <g clip-path="url(#clip0_0_408)">
      <path d="M22.6452 0H1.35484C0.580645 0 0 0.619355 0 1.35484V22.6452C0 23.4194 0.619355 24 1.35484 24H12.8129V14.671H9.71613V11.071H12.8129V8.4C12.8129 5.30323 14.671 3.6 17.4581 3.6C18.3871 3.6 19.3161 3.63871 20.2452 3.75484V6.96774H18.3871C16.9161 6.96774 16.6065 7.66452 16.6065 8.70968V10.9935H20.129L19.6258 14.6323H16.529V23.8452H22.6452C23.4194 23.8452 24 23.2645 24 22.4903V1.35484C23.9613 0.580645 23.3419 0 22.6452 0Z" fill="white"></path>
    </g>
    <defs>
      <clipPath id="clip0_0_408">
        <rect width="24" height="24" fill="white"></rect>
      </clipPath>
    </defs>
  </symbol>
  <symbol fill="none" xmlns="http://www.w3.org/2000/svg" viewBox="0 0 24 24" id="iconIn">
    <g clip-path="url(#clip0_0_403)">
      <path d="M22.3224 0H1.75001C0.777784 0 0 0.774194 0 1.74194V22.2581C0 23.1871 0.777784 24 1.75001 24H22.2446C23.2168 24 23.9946 23.2258 23.9946 22.2581V1.70323C24.0724 0.774194 23.2946 0 22.3224 0ZM7.11672 20.4H3.57781V8.98065H7.11672V20.4ZM5.32782 7.39355C4.16114 7.39355 3.26669 6.46452 3.26669 5.34194C3.26669 4.21936 4.20003 3.29032 5.32782 3.29032C6.45561 3.29032 7.38895 4.21936 7.38895 5.34194C7.38895 6.46452 6.53338 7.39355 5.32782 7.39355ZM20.5335 20.4H16.9946V14.8645C16.9946 13.5484 16.9557 11.8065 15.1279 11.8065C13.2612 11.8065 12.989 13.2774 12.989 14.7484V20.4H9.45007V8.98065H12.9112V10.5677H12.9501C13.4557 9.63871 14.5834 8.70968 16.3335 8.70968C19.9502 8.70968 20.6113 11.0323 20.6113 14.2065V20.4H20.5335Z" fill="white"></path>
    </g>
    <defs>
      <clipPath id="clip0_0_403">
        <rect width="24" height="24" fill="white"></rect>
      </clipPath>
    </defs>
  </symbol>
  <symbol fill="none" xmlns="http://www.w3.org/2000/svg" viewBox="0 0 24 24" id="iconInstagram">
    <g clip-path="url(#clip0_0_413)">
      <path d="M13.8943 0.000976562C15.5417 0.0042081 16.0121 0.0180576 17.052 0.0774124C18.3697 0.116122 19.2223 0.30967 19.9974 0.619348C20.7725 0.929025 21.4313 1.31612 22.0902 1.97419C22.749 2.63225 23.1753 3.29032 23.4466 4.10322C23.7178 4.91612 23.9504 5.80644 23.9891 7.04515C24.0279 8.36128 23.9504 8.78709 23.9504 12.0774L23.9501 13.7333C23.95 13.8092 23.95 13.8828 23.9499 13.9541L23.9493 14.3562C23.9469 15.6766 23.9388 16.1264 23.9116 16.9935C23.8729 18.3097 23.6403 19.1613 23.3691 19.9355C23.0978 20.7097 22.6715 21.4064 22.0126 22.0645C21.3538 22.7226 20.695 23.1484 19.8811 23.4193C19.0673 23.6903 18.2534 23.9226 16.9358 23.9613C16.5844 23.9716 16.3019 23.9792 16.0141 23.9847L15.7961 23.9885C15.4272 23.9943 15.021 23.9971 14.4325 23.9986L14.0564 23.9993C13.9897 23.9993 13.9208 23.9994 13.8497 23.9995L10.3208 23.9994C8.50276 23.9969 8.06871 23.9845 7.01458 23.9226C5.69692 23.8839 4.84432 23.6516 4.06922 23.3806C3.29413 23.1097 2.59655 22.6839 1.93772 22.0258C1.27889 21.3677 0.852586 20.7097 0.581303 19.8968C0.31002 19.0839 0.0774924 18.271 0.0387377 16.9548C0.0309868 16.6916 0.024786 16.4671 0.0198254 16.25L0.0132759 15.926C0.00694596 15.5636 0.00363028 15.1783 0.0018935 14.6255L0.00102941 14.2725C0.000913147 14.21 0.000809802 14.1454 0.000717939 14.0788L0.000488281 11.38C0.00515033 8.65892 0.0413214 8.27354 0.0774924 7.04515C0.116247 5.72902 0.31002 4.87741 0.620058 4.10322C0.891341 3.29032 1.31764 2.63225 1.97647 1.97419C2.6353 1.31612 3.29413 0.851606 4.10798 0.580638C4.92183 0.30967 5.73568 0.0774124 7.05334 0.0387027C7.9757 0.011606 8.42331 0.00347692 9.73876 0.00103821L13.8943 0.000976562ZM14.0923 2.20718H10.0131C9.15961 2.20837 8.653 2.2115 8.19369 2.21972L7.98397 2.22389C7.74067 2.2292 7.49772 2.23612 7.20835 2.24515C6.00696 2.28386 5.38688 2.51612 4.96058 2.67096C4.41802 2.90322 4.03047 3.13548 3.60417 3.56128C3.21662 3.94838 2.94534 4.37419 2.71281 4.91612C2.55779 5.38064 2.32526 5.99999 2.28651 7.16128C2.27747 7.45032 2.27053 7.69298 2.26522 7.936L2.26105 8.14548C2.25345 8.56896 2.2502 9.0327 2.2488 9.77206L2.24806 10.3819C2.24801 10.4563 2.24797 10.5329 2.24793 10.612L2.24775 16.8C2.28651 18 2.51904 18.6193 2.67406 19.0452C2.94534 19.5871 3.17787 19.9742 3.60417 20.4C3.99172 20.8258 4.41802 21.0968 4.96058 21.329C5.42564 21.4839 6.04571 21.7161 7.20835 21.7548C8.06363 21.7815 8.53182 21.7898 9.78244 21.7924L10.402 21.7932C10.4776 21.7933 10.5555 21.7933 10.6361 21.7933L16.8583 21.7935C18.0597 21.7548 18.6797 21.5226 19.106 21.3677C19.6486 21.0968 20.0362 20.8645 20.4625 20.4387C20.8888 20.0516 21.16 19.6258 21.3926 19.0839C21.5476 18.6193 21.7801 18 21.8189 16.8387C21.8266 16.591 21.8344 16.3773 21.8418 16.1683L21.8491 15.9597C21.8755 15.1926 21.8964 14.3561 21.8964 12L21.8961 10.3819C21.896 10.3076 21.896 10.2356 21.8959 10.1658L21.8953 9.77206C21.8929 8.47819 21.8848 8.02838 21.8576 7.16128C21.8189 5.96128 21.5863 5.34193 21.4313 4.91612C21.16 4.37419 20.9275 3.98709 20.5012 3.56128C20.1137 3.17419 19.6874 2.90322 19.1448 2.67096C18.6797 2.51612 18.0597 2.28386 16.897 2.24515C16.6077 2.23612 16.3647 2.2292 16.1214 2.22389L15.9117 2.21972C15.4524 2.2115 14.9458 2.20837 14.0923 2.20718ZM12.0139 5.84515C15.4631 5.84515 18.2147 8.55483 18.2147 12C18.2147 15.4452 15.3856 18.1548 12.0139 18.1548C8.64228 18.1548 5.85194 15.4452 5.85194 12C5.85194 8.63225 8.56477 5.84515 12.0139 5.84515ZM12.0139 7.97419C9.80492 7.97419 7.98345 9.79354 7.98345 12C7.98345 14.2064 9.76616 16.0258 12.0139 16.0258C14.2617 16.0258 16.0444 14.2452 16.0444 12C16.0444 9.75483 14.2617 7.97419 12.0139 7.97419ZM18.486 4.14193C19.2779 4.14193 19.9199 4.78317 19.9199 5.57419C19.9199 6.3652 19.2779 7.00644 18.486 7.00644C17.694 7.00644 17.052 6.3652 17.052 5.57419C17.052 4.78317 17.694 4.14193 18.486 4.14193Z" fill="white"></path>
    </g>
    <defs>
      <clipPath id="clip0_0_413">
        <rect width="24" height="24" fill="white"></rect>
      </clipPath>
    </defs>
  </symbol>
  <symbol fill="none" xmlns="http://www.w3.org/2000/svg" viewBox="0 0 24 21" id="iconTwitter">
    <path d="M7.47097 20.1645C16.6065 20.1645 21.5613 12.6161 21.5613 6.07419C21.5613 5.91936 21.5613 5.64839 21.5226 5.41613C22.4903 4.71936 23.3419 3.82903 24 2.86129C23.071 3.2871 22.1419 3.51935 21.1742 3.63548C22.2194 3.01613 22.9935 2.04839 23.3419 0.887097C22.3742 1.42903 21.3677 1.85484 20.1677 2.0871C19.2387 1.11935 18 0.5 16.5677 0.5C13.8194 0.5 11.5742 2.74516 11.5742 5.49355C11.5742 5.88065 11.6129 6.26774 11.6903 6.65484C7.70323 6.38387 4.06452 4.40968 1.5871 1.42903C1.16129 2.20323 0.929032 3.01613 0.929032 3.90645C0.929032 5.64839 1.81935 7.11935 3.17419 8.00968C2.36129 7.97097 1.5871 7.73871 0.929032 7.39032C0.929032 7.42903 0.929032 7.42903 0.929032 7.42903C0.929032 9.79032 2.63226 11.8419 4.87742 12.3065C4.45161 12.4226 3.9871 12.4613 3.63871 12.4613C3.32903 12.4613 2.98065 12.4226 2.70968 12.3452C3.36774 14.3194 5.1871 15.7516 7.35484 15.7903C5.65161 17.1065 3.52258 17.9194 1.23871 17.9194C0.774194 17.9968 0.387097 17.9194 0 17.8806C2.09032 19.3516 4.68387 20.1645 7.47097 20.1645Z" fill="white"></path>
  </symbol>

  <svg width="0" height="0" class="hidden">
  <symbol  xmlns="http://www.w3.org/2000/svg" viewBox="0 0 22 16" id="iconBurger">
    <path d="M2 2H20M2 8H20M2 14H20"  stroke-width="2.5" stroke-linecap="round" stroke-linejoin="round"></path>
  </symbol>
</svg>
</svg>

